# xmcd CD database file
#
# Track frame offsets:
#	150
#	86333
#	100195
#	123135
#	142568
#
# Disc length: 2953 seconds
#
# Revision: 0
# Processed by: cddbd v1.5.2PL0 Copyright (c) Steve Scherf et al.
# Submitted via: CDex 1.51
#
DISCID=2c0b8705
DTITLE=Orquesta Nacional de España - Benet Casablancas: Orchestral Works
DYEAR=2010
DGENRE=Clasica
TTITLE0=Alter Klang
TTITLE1=Tres Epigramas   I. Allegro Insultante
TTITLE2=Tres Epigramas  II.  LMolto Lento Nottuno
TTITLE3=Tres Epigramas  III.   Finale  Allegro  Assei Giocoso
TTITLE4=Darkner s Visible
EXTD=YEAR: 2010
EXTT0=
EXTT1=
EXTT2=
EXTT3=
EXTT4=
PLAYORDER=
